<?xml version="1.0" encoding="UTF-8" standalone="no"?>
<!-- Generator: Adobe Illustrator 21.1.0, SVG Export Plug-In . SVG Version: 6.00 Build 0)  -->

<svg
   version="1.1"
   id="Layer_1"
   x="0px"
   y="0px"
   viewBox="0 0 48 48"
   style="enable-background:new 0 0 48 48;"
   xml:space="preserve"
   sodipodi:docname="drawing-palette.svg"
   inkscape:version="1.4.2 (ebf0e940d0, 2025-05-08)"
   xmlns:inkscape="http://www.inkscape.org/namespaces/inkscape"
   xmlns:sodipodi="http://sodipodi.sourceforge.net/DTD/sodipodi-0.dtd"
   xmlns="http://www.w3.org/2000/svg"
   xmlns:svg="http://www.w3.org/2000/svg"><defs
   id="defs2" /><sodipodi:namedview
   id="namedview2"
   pagecolor="#ffffff"
   bordercolor="#000000"
   borderopacity="0.25"
   inkscape:showpageshadow="2"
   inkscape:pageopacity="0.0"
   inkscape:pagecheckerboard="0"
   inkscape:deskcolor="#d1d1d1"
   inkscape:zoom="21.104167"
   inkscape:cx="24"
   inkscape:cy="24"
   inkscape:window-width="2048"
   inkscape:window-height="1255"
   inkscape:window-x="0"
   inkscape:window-y="0"
   inkscape:window-maximized="1"
   inkscape:current-layer="Layer_1" />
<style
   type="text/css"
   id="style1">
	.st0{fill:#39393B;}
	.st1{fill:none;stroke:#39393B;stroke-width:2.5;stroke-miterlimit:10;}
</style>
<g
   id="g1"
   style="fill:#dbdbdf;fill-opacity:1">
	<path
   class="st0"
   d="M46,26.2c0.7-0.7,1-1.8,0.7-2.7c-0.1-0.4-0.3-0.7-0.6-1c-1-1-2.7-1-3.8,0L23.9,40.8l-3,6.7l6.8-3L46,26.2z"
   id="path1"
   style="fill:#dbdbdf;fill-opacity:1" />
</g>
<path
   class="st1"
   d="M30,19.2v6.7H8.7v-4l4-4l2.7,2.7l8-8L30,19.2z M10.5,14c-1,0-1.9-0.4-2.6-1.1c-0.7-0.7-1.1-1.6-1.1-2.6  s0.4-1.9,1.1-2.6s1.6-1.1,2.6-1.1s1.9,0.4,2.6,1.1c0.7,0.7,1.1,1.6,1.1,2.6s-0.4,1.9-1.1,2.6C12.5,13.7,11.5,14,10.5,14z M32.9,29  H3.3V3.3h29.6V29z"
   id="path2"
   style="stroke:#dbdbdf;stroke-opacity:1" />
</svg>
