<?xml version='1.0' encoding='utf-8'?>
<svg xmlns="http://www.w3.org/2000/svg" version="1.1" id="Layer_1" x="0px" y="0px" viewBox="0 0 200 200" enable-background="new 0 0 200 200" xml:space="preserve">
<style>/* Force everything to the single overlay color and full opacity */
* {
  fill: #DBDBDB !important;
  stroke: #DBDBDB !important;
  fill-opacity: 1 !important;
  stroke-opacity: 1 !important;
  opacity: 1 !important;
  stop-color: #DBDBDB !important; /* gradients */
}</style><style>/* Force everything to the single overlay color and full opacity */
* {
  fill: #DBDBDBD !important;
  stroke: #DBDBDBD !important;
  fill-opacity: 1 !important;
  stroke-opacity: 1 !important;
  opacity: 1 !important;
  stop-color: #DBDBDBD !important; /* gradients */
}</style><style>/* Force everything to the single overlay color and full opacity */
* {
  fill: #DBDBDBD !important;
  stroke: #DBDBDBD !important;
  fill-opacity: 1 !important;
  stroke-opacity: 1 !important;
  opacity: 1 !important;
  stop-color: #DBDBDBD !important; /* gradients */
}</style><path d="M128.6,57.1V4.5c1.6,1,3,2.1,4,3.1l45.5,45.5c1,1,2.1,2.4,3.1,4H128.6z M114.3,60.7c0,3,1,5.5,3.1,7.6s4.6,3.1,7.6,3.1h60.7  v117.9c0,3-1,5.5-3.1,7.6S178,200,175,200H25c-3,0-5.5-1-7.6-3.1s-3.1-4.6-3.1-7.6V10.7c0-3,1-5.5,3.1-7.6S22,0,25,0h89.3V60.7z" />
</svg>